<!-- icon666.com - MILLIONS OF FREE VECTOR ICONS --><svg viewBox="0 0 48 48" xmlns="http://www.w3.org/2000/svg"><g id="Drop_water" data-name="Drop water"><path d="m30.8291 10.32a9.4038 9.4038 0 0 0 -9.3291-9.32 9.296 9.296 0 0 0 -7.2314 3.4863 5.8254 5.8254 0 0 0 -1.0986-.1063 6.0472 6.0472 0 0 0 -6 6.08 6.2079 6.2079 0 0 0 .1143 1.1933 6.9375 6.9375 0 0 0 2.5457 13.3467h17.5a7.7852 7.7852 0 0 0 3.499-14.68z" fill="#376cfb" style="fill: rgb(214, 214, 214);"></path><path d="m40.8291 19.32a9.4038 9.4038 0 0 0 -9.3291-9.32 9.296 9.296 0 0 0 -7.2314 3.4863 5.8254 5.8254 0 0 0 -1.0986-.1063 6.0472 6.0472 0 0 0 -6 6.08 6.2079 6.2079 0 0 0 .1143 1.1933 6.9375 6.9375 0 0 0 2.5457 13.3467h17.5a7.7852 7.7852 0 0 0 3.499-14.68z" fill="#4294ff" style="fill: rgb(235, 235, 235);"></path><g fill="#376cfb"><path d="m36.833 20.4619a1 1 0 0 1 -1-1 4.4039 4.4039 0 0 0 -4.333-4.4619 1 1 0 0 1 0-2 6.4053 6.4053 0 0 1 6.333 6.4619 1 1 0 0 1 -1 1z" fill="#376cfb" style="fill: rgb(214, 214, 214);"></path><path d="m29.7441 30.332a1.0333 1.0333 0 0 0 -1.4882 0c-.544.6055-3.2559 3.7266-3.2559 5.668a4 4 0 0 0 8 0c0-1.9414-2.7119-5.0625-3.2559-5.668z" fill="#376cfb" style="fill: rgb(214, 214, 214);"></path><path d="m37.7441 37.332a1.0333 1.0333 0 0 0 -1.4882 0c-.544.6055-3.2559 3.7266-3.2559 5.668a4 4 0 0 0 8 0c0-1.9414-2.7119-5.0625-3.2559-5.668z" fill="#376cfb" style="fill: rgb(214, 214, 214);"></path><path d="m21.7441 37.332a1.0333 1.0333 0 0 0 -1.4882 0c-.544.6055-3.2559 3.7266-3.2559 5.668a4 4 0 0 0 8 0c0-1.9414-2.7119-5.0625-3.2559-5.668z" fill="#376cfb" style="fill: rgb(214, 214, 214);"></path></g></g></svg>