<!-- icon666.com - MILLIONS OF FREE VECTOR ICONS --><svg viewBox="0 0 48 48" xmlns="http://www.w3.org/2000/svg"><g id="Cloud_Sun-2" data-name="Cloud Sun"><circle cx="18" cy="22" fill="#ffce33" r="11"></circle><path d="m41.9946 25.6646a9.9925 9.9925 0 0 0 -18.1616-5.419 6.9919 6.9919 0 0 0 -8.6636 8.2749 7.9982 7.9982 0 0 0 2.8306 15.4795h20.5a9.5009 9.5009 0 0 0 3.4946-18.3354z" fill="#4294ff" style="fill: rgb(255, 255, 255);"></path><g fill="#ffce33"><path d="m4 23h-3a1 1 0 0 1 0-2h3a1 1 0 0 1 0 2z" fill="#ffce33"></path><path d="m5.979 35.021a1 1 0 0 1 -.707-1.707l2.1216-2.1216a1 1 0 0 1 1.414 1.414l-2.1216 2.1216a.9967.9967 0 0 1 -.707.293z" fill="#ffce33"></path><path d="m27.8994 13.1006a1 1 0 0 1 -.707-1.707l2.1216-2.1216a1 1 0 1 1 1.414 1.414l-2.1216 2.1216a.9967.9967 0 0 1 -.707.293z" fill="#ffce33"></path><path d="m18 9a1 1 0 0 1 -1-1v-3a1 1 0 0 1 2 0v3a1 1 0 0 1 -1 1z" fill="#ffce33"></path><path d="m8.1006 13.1006a.9967.9967 0 0 1 -.707-.293l-2.1216-2.1216a1 1 0 1 1 1.414-1.414l2.1216 2.1216a1 1 0 0 1 -.707 1.707z" fill="#ffce33"></path></g><path d="m38 27a1 1 0 0 1 -1-1 5.0059 5.0059 0 0 0 -5-5 1 1 0 0 1 0-2 7.0078 7.0078 0 0 1 7 7 1 1 0 0 1 -1 1z" fill="#376cfb" style="fill: rgb(235, 235, 235);"></path></g></svg>