<!-- icon666.com - MILLIONS OF FREE VECTOR ICONS --><svg version="1.1" id="Capa_1" xmlns="http://www.w3.org/2000/svg" xmlns:xlink="http://www.w3.org/1999/xlink" x="0px" y="0px" viewBox="0 0 512 512" style="enable-background:new 0 0 512 512;" xml:space="preserve"><g><g><path d="M256,241c-8.284,0-15,6.716-15,15v16.066c0,8.284,6.716,15,15,15s15-6.716,15-15V256C271,247.716,264.284,241,256,241z" fill="#000000" style="fill: rgb(255, 255, 255);"></path></g></g><g><g><path d="M437.02,315.981c-5.859-5.857-15.356-5.857-21.214,0.001l-11.362,11.363c-5.857,5.858-5.856,15.355,0.001,21.213 c2.93,2.929,6.768,4.393,10.607,4.393s7.679-1.465,10.607-4.394l11.362-11.363C442.878,331.336,442.877,321.839,437.02,315.981z" fill="#000000" style="fill: rgb(255, 255, 255);"></path></g></g><g><g><path d="M107.557,327.34l-11.363-11.362c-5.857-5.857-15.355-5.857-21.213,0.001c-5.858,5.858-5.858,15.356,0.001,21.213 l11.363,11.362c2.929,2.929,6.767,4.393,10.606,4.393s7.678-1.465,10.607-4.394C113.416,342.695,113.415,333.198,107.557,327.34z" fill="#000000" style="fill: rgb(255, 255, 255);"></path></g></g><g><g><path d="M334.771,72.558L266.606,4.394c-5.857-5.858-15.355-5.858-21.213,0L177.23,72.558c-5.858,5.858-5.858,15.355,0,21.213 c5.857,5.858,15.355,5.858,21.212,0L241,51.214v106.78c0,8.284,6.716,15,15,15s15-6.716,15-15V51.214l42.558,42.557 c2.929,2.929,6.768,4.394,10.607,4.394s7.678-1.464,10.606-4.394C340.629,87.913,340.629,78.416,334.771,72.558z" fill="#000000" style="fill: rgb(255, 255, 255);"></path></g></g><g><g><path d="M497,482h-82.11c-7.586-80.995-75.945-144.6-158.89-144.6S104.696,401.005,97.109,482H15c-8.284,0-15,6.716-15,15 s6.716,15,15,15h96.399h289.2H497c8.284,0,15-6.716,15-15S505.284,482,497,482z M127.262,482.001L127.262,482.001 C134.72,417.578,189.611,367.4,256,367.4s121.278,50.178,128.737,114.601H127.262z" fill="#000000" style="fill: rgb(255, 255, 255);"></path></g></g></svg>