<!-- icon666.com - MILLIONS OF FREE VECTOR ICONS --><svg version="1.1" id="Capa_1" xmlns="http://www.w3.org/2000/svg" xmlns:xlink="http://www.w3.org/1999/xlink" x="0px" y="0px" viewBox="0 0 512 512" style="enable-background:new 0 0 512 512;" xml:space="preserve"><g><g><path d="M256,241c-8.284,0-15,6.716-15,15v16.066c0,8.284,6.716,15,15,15s15-6.716,15-15V256C271,247.716,264.284,241,256,241z" fill="#000000" style="fill: rgb(255, 255, 255);"></path></g></g><g><g><path d="M437.021,315.981c-5.859-5.857-15.357-5.857-21.214,0.001l-11.362,11.363c-5.857,5.858-5.856,15.355,0.001,21.213 c2.93,2.929,6.768,4.393,10.607,4.393c3.839,0,7.679-1.465,10.607-4.394l11.362-11.363 C442.879,331.336,442.878,321.839,437.021,315.981z" fill="#000000" style="fill: rgb(255, 255, 255);"></path></g></g><g><g><path d="M107.557,327.34l-11.363-11.362c-5.859-5.857-15.356-5.857-21.214,0.001c-5.857,5.858-5.856,15.355,0.001,21.213 l11.364,11.362c2.93,2.929,6.768,4.393,10.606,4.393c3.839,0,7.679-1.465,10.607-4.394 C113.415,342.695,113.414,333.198,107.557,327.34z" fill="#000000" style="fill: rgb(255, 255, 255);"></path></g></g><g><g><path d="M334.77,79.223c-5.857-5.858-15.355-5.858-21.213,0L271,121.78V15c0-8.284-6.716-15-15-15s-15,6.716-15,15v106.78 l-42.558-42.557c-5.857-5.858-15.355-5.858-21.213,0c-5.858,5.858-5.858,15.355,0,21.213l68.165,68.164 c2.929,2.929,6.768,4.394,10.606,4.394s7.678-1.464,10.606-4.394l68.164-68.164C340.628,94.578,340.628,85.081,334.77,79.223z" fill="#000000" style="fill: rgb(255, 255, 255);"></path></g></g><g><g><path d="M497,482h-82.11c-7.586-80.996-75.944-144.601-158.89-144.601S104.696,401.004,97.11,482H15c-8.284,0-15,6.716-15,15 s6.716,15,15,15h96.4h289.2H497c8.284,0,15-6.716,15-15S505.284,482,497,482z M127.263,482 c7.458-64.422,62.349-114.601,128.737-114.601S377.279,417.578,384.737,482H127.263z" fill="#000000" style="fill: rgb(255, 255, 255);"></path></g></g></svg>