<!-- icon666.com - MILLIONS OF FREE VECTOR ICONS --><svg viewBox="0 -54 512 512" xmlns="http://www.w3.org/2000/svg"><path d="m484.230469 7.574219h-456.460938c-11.152343 0-20.195312 9.042969-20.195312 20.195312v294.882813c0 11.152344 9.042969 20.195312 20.195312 20.195312h286.800781l75.742188 54.535156v-54.535156h93.917969c11.152343 0 20.195312-9.042968 20.195312-20.195312v-294.882813c0-11.152343-9.042969-20.195312-20.195312-20.195312zm0 0" fill="#a0cafe" style="fill: rgb(128, 182, 255);"></path><path d="m484.230469 7.574219h-20.199219c11.15625 0 20.199219 9.042969 20.199219 20.195312v294.882813c0 11.152344-9.042969 20.195312-20.199219 20.195312h20.199219c11.152343 0 20.195312-9.042968 20.195312-20.195312v-294.882813c0-11.152343-9.042969-20.195312-20.195312-20.195312zm0 0" fill="#81b8fd" style="fill: rgb(116, 167, 254);"></path><g fill="#ffea84"><path d="m120.679688 93.410156v60.59375h-40.394532v-60.59375h-40.394531v80.789063c0 11.15625 9.042969 20.199219 20.195313 20.199219h60.59375v63.621093h40.394531v-164.609375zm0 0" fill="#ffea84" style="fill: rgb(254, 205, 106);"></path><path d="m431.714844 93.410156v60.59375h-40.394532v-60.59375h-40.390624v80.789063c0 11.15625 9.039062 20.199219 20.195312 20.199219h60.59375v63.621093h40.390625v-164.609375zm0 0" fill="#ffea84" style="fill: rgb(254, 205, 106);"></path><path d="m296.394531 259.027344h-80.789062c-11.15625 0-20.199219-9.039063-20.199219-20.195313v-125.222656c0-11.15625 9.042969-20.199219 20.199219-20.199219h80.789062c11.15625 0 20.195313 9.042969 20.195313 20.199219v125.222656c.003906 11.15625-9.039063 20.195313-20.195313 20.195313zm-60.589843-40.390625h40.390624v-84.828125h-40.390624zm0 0" fill="#ffea84" style="fill: rgb(254, 205, 106);"></path></g><path d="m296.394531 93.410156h-15.148437c11.15625 0 20.195312 9.042969 20.195312 20.199219v125.222656c0 11.15625-9.039062 20.195313-20.195312 20.195313h15.148437c11.15625 0 20.195313-9.039063 20.195313-20.195313v-125.222656c.003906-11.15625-9.039063-20.199219-20.195313-20.199219zm0 0" fill="#ffe046" style="fill: rgb(255, 170, 0);"></path><path d="m457.972656 93.410156h14.136719v164.609375h-14.136719zm0 0" fill="#ffe046" style="fill: rgb(255, 170, 0);"></path><path d="m146.933594 93.410156h14.140625v164.609375h-14.140625zm0 0" fill="#ffe046" style="fill: rgb(255, 170, 0);"></path><path d="m32.316406 93.410156v80.789063c0 15.316406 12.457032 27.773437 27.769532 27.773437h53.019531v56.046875c0 4.183594 3.390625 7.574219 7.574219 7.574219h40.394531c4.183593 0 7.574219-3.390625 7.574219-7.574219v-98.429687c0-4.183594-3.390626-7.574219-7.574219-7.574219-4.183594 0-7.574219 3.390625-7.574219 7.574219v90.855468h-25.246094v-56.046874c0-4.183594-3.394531-7.574219-7.574218-7.574219h-60.59375c-6.960938 0-12.621094-5.664063-12.621094-12.625v-73.214844h25.246094v53.019531c0 4.183594 3.390624 7.574219 7.574218 7.574219h40.394532c4.179687 0 7.574218-3.390625 7.574218-7.574219v-53.019531h25.246094v23.269531c0 4.183594 3.390625 7.574219 7.574219 7.574219 4.183593 0 7.574219-3.390625 7.574219-7.574219v-30.84375c0-4.179687-3.390626-7.570312-7.574219-7.570312h-40.394531c-4.183594 0-7.574219 3.390625-7.574219 7.570312v53.019532h-25.246094v-53.019532c0-4.179687-3.390625-7.570312-7.574219-7.570312h-40.394531c-4.183594 0-7.574219 3.386718-7.574219 7.570312zm0 0" fill="#000000"></path><path d="m391.320312 85.839844h-40.390624c-4.183594 0-7.574219 3.390625-7.574219 7.570312v80.789063c0 15.316406 12.457031 27.773437 27.769531 27.773437h53.019531v56.046875c0 4.183594 3.390625 7.574219 7.574219 7.574219h40.390625c4.183594 0 7.574219-3.390625 7.574219-7.574219v-98.429687c0-4.183594-3.390625-7.574219-7.574219-7.574219-4.179687 0-7.574219 3.390625-7.574219 7.574219v90.855468h-25.246094v-56.046874c0-4.183594-3.390624-7.574219-7.574218-7.574219h-60.589844c-6.960938 0-12.625-5.664063-12.625-12.625v-73.214844h25.246094v53.019531c0 4.183594 3.394531 7.574219 7.574218 7.574219h40.394532c4.183594 0 7.574218-3.390625 7.574218-7.574219v-53.019531h25.246094v23.269531c0 4.183594 3.394532 7.574219 7.574219 7.574219 4.183594 0 7.574219-3.390625 7.574219-7.574219v-30.84375c0-4.179687-3.390625-7.570312-7.574219-7.570312h-40.390625c-4.183594 0-7.574219 3.390625-7.574219 7.570312v53.019532h-25.25v-53.019532c0-4.183594-3.390625-7.570312-7.574219-7.570312zm0 0" fill="#000000"></path><path d="m235.804688 226.210938h40.390624c4.183594 0 7.574219-3.394532 7.574219-7.574219v-84.828125c0-4.183594-3.390625-7.574219-7.574219-7.574219h-40.390624c-4.183594 0-7.574219 3.390625-7.574219 7.574219v84.828125c0 4.179687 3.390625 7.574219 7.574219 7.574219zm7.574218-84.832032h25.246094v69.679688h-25.246094zm0 0" fill="#000000"></path><path d="m296.394531 266.601562c15.3125 0 27.769531-12.457031 27.769531-27.769531v-125.222656c0-15.3125-12.457031-27.769531-27.769531-27.769531h-80.789062c-15.3125 0-27.769531 12.457031-27.769531 27.769531v125.222656c0 15.3125 12.457031 27.769531 27.769531 27.769531zm-93.414062-27.769531v-125.222656c0-6.960937 5.664062-12.625 12.625-12.625h80.789062c6.960938 0 12.621094 5.664063 12.621094 12.625v125.222656c0 6.960938-5.660156 12.621094-12.621094 12.621094h-80.789062c-6.960938 0-12.625-5.660156-12.625-12.621094zm0 0" fill="#000000"></path><path d="m484.230469 0h-390.28125c-4.183594 0-7.574219 3.390625-7.574219 7.574219 0 4.183593 3.390625 7.574219 7.574219 7.574219h390.28125c6.960937 0 12.621093 5.664062 12.621093 12.621093v294.882813c0 6.960937-5.664062 12.621094-12.621093 12.621094h-93.917969c-4.183594 0-7.574219 3.390624-7.574219 7.574218v39.746094l-63.742187-45.890625c-1.285156-.929687-2.835938-1.429687-4.425782-1.429687h-286.800781c-6.960937 0-12.621093-5.660157-12.621093-12.621094v-294.882813c0-6.960937 5.664062-12.621093 12.621093-12.621093h30.800781c4.183594 0 7.574219-3.390626 7.574219-7.574219 0-4.183594-3.390625-7.574219-7.574219-7.574219h-30.800781c-15.3125 0-27.769531 12.457031-27.769531 27.769531v294.882813c0 15.3125 12.457031 27.769531 27.769531 27.769531h284.359375l73.757813 53.105469c1.3125.945312 2.867187 1.425781 4.425781 1.425781 1.179688 0 2.363281-.273437 3.453125-.832031 2.53125-1.296875 4.121094-3.898438 4.121094-6.738282v-46.960937h86.34375c15.3125 0 27.769531-12.457031 27.769531-27.769531v-294.882813c0-15.3125-12.457031-27.769531-27.769531-27.769531zm0 0" fill="#000000"></path></svg>